#!OML:ASF E:\Style4\Style4.ASF
:FULLY-SPECIFIED
:DEGREES
3737
root -1.6427 17.2906 -2.02214 12.9165 22.575 1.13203
lowerback 17.6989 5.17529 1.32655
upperback 11.923 7.11134 -1.53595
thorax 3.33952 3.80319 -3.35564
lowerneck 1.93926 -9.89852 -4.69
upperneck -14.1449 -12.0662 14.6056
head -3.26188 -6.5556 5.52031
rclavicle -5.80451e-014 2.22639e-014
rhumerus 59.6497 11.7797 -3.72745
rradius 71.9301
rwrist -87.3353
rhand -1.6453 11.5706
rfingers 7.12502
rthumb 24.0136 -16.9473
lclavicle -5.80451e-014 2.22639e-014
lhumerus 52.4275 -15.6331 11.3313
lradius 86.4386
lwrist 88.3592
lhand -6.95556 28.7898
lfingers 7.12502
lthumb 18.9136 57.8902
rfemur -39.9306 -16.6987 27.9518
rtibia 47.06
rfoot -24.0542 -20.516
rtoes -3.62458
lfemur -42.2517 -6.86914 -11.4967
ltibia 38.7031
lfoot -8.96843 -4.94719
ltoes -19.0138
3738
root -1.60658 17.3041 -2.0211 13.0012 22.7456 1.2799
lowerback 17.6058 5.23681 1.56454
upperback 11.9048 7.22373 -1.44677
thorax 3.39343 3.87084 -3.3978
lowerneck 1.93967 -10.0831 -4.66354
upperneck -14.1139 -12.3381 14.4417
head -3.24087 -6.68314 5.46407
rclavicle -4.05521e-014 3.33958e-014
rhumerus 59.8 11.9985 -4.1176
rradius 71.9264
rwrist -87.3121
rhand -1.83909 11.666
rfingers 7.12502
rthumb 23.8277 -16.8762
lclavicle -4.05521e-014 3.33958e-014
lhumerus 52.1706 -15.5133 10.5098
lradius 86.5351
lwrist 88.3211
lhand -7.04057 28.5076
lfingers 7.12502
lthumb 18.8318 57.6161
rfemur -39.839 -16.9237 27.7064
rtibia 46.9287
rfoot -23.9767 -20.5303
rtoes -4.03284
lfemur -42.0979 -7.02288 -11.7654
ltibia 38.4064
lfoot -8.82765 -4.99619
ltoes -18.6823
3739
root -1.57119 17.3181 -2.02143 13.0552 22.896 1.4707
lowerback 17.6502 5.29755 1.75456
upperback 11.841 7.3269 -1.37691
thorax 3.32324 3.92935 -3.4502
lowerneck 1.97893 -10.2429 -4.62473
upperneck -14.0127 -12.5816 14.2702
head -3.21014 -6.79614 5.40304
rclavicle -7.15625e-014 1.43125e-014
rhumerus 59.9621 12.3101 -4.52332
rradius 71.9233
rwrist -87.2643
rhand -2.06169 11.8029
rfingers 7.12502
rthumb 23.6142 -16.767
lclavicle -7.15625e-014 1.43125e-014
lhumerus 51.8841 -15.4362 9.65107
lradius 86.5224
lwrist 88.0388
lhand -5.79409 27.7192
lfingers 7.12502
lthumb 20.0303 56.7068
rfemur -39.6921 -17.1074 27.3824
rtibia 46.7891
rfoot -23.8944 -20.5362
rtoes -4.18574
lfemur -41.8963 -7.18063 -12.0817
ltibia 38.1155
lfoot -8.6911 -5.08582
ltoes -18.0695
3740
root -1.53611 17.3315 -2.02282 13.1472 23.0625 1.71735
lowerback 17.6127 5.3373 1.81462
upperback 11.808 7.38606 -1.25839
thorax 3.3006 3.9567 -3.36457
lowerneck 2.15763 -10.3766 -4.64956
upperneck -14.074 -12.7807 14.1232
head -3.24924 -6.89323 5.37636
rclavicle -7.4743e-014 5.1684e-014
rhumerus 60.1808 12.6289 -4.82457
rradius 72.0383
rwrist -87.1803
rhand -2.34631 12.0234
rfingers 7.12502
rthumb 23.3412 -16.5814
lclavicle -7.4743e-014 5.1684e-014
lhumerus 51.5332 -15.3754 8.85971
lradius 86.541
lwrist 87.9639
lhand -4.81512 27.2695
lfingers 7.12502
lthumb 20.971 56.1558
rfemur -39.5614 -17.3032 27.0144
rtibia 46.6383
rfoot -23.7142 -20.6636
rtoes -4.34344
lfemur -41.7215 -7.38967 -12.4377
ltibia 37.815
lfoot -8.55798 -5.10382
ltoes -18.0941
3741
root -1.50081 17.3472 -2.02179 13.2005 23.218 1.81822
lowerback 17.4925 5.3978 1.99988
upperback 11.8363 7.48973 -1.10766
thorax 3.40382 4.01538 -3.30556
lowerneck 2.23586 -10.5563 -4.68806
upperneck -14.1917 -13.0277 14.0756
head -3.27535 -7.01713 5.37722
rclavicle -5.56597e-014 6.91771e-014
rhumerus 60.3034 12.8045 -5.07896
rradius 72.2226
rwrist -87.1642
rhand -2.57179 12.3289
rfingers 7.12502
rthumb 23.1249 -16.3032
lclavicle -5.56597e-014 6.91771e-014
lhumerus 51.3014 -15.2108 8.08004
lradius 86.64
lwrist 88.1767
lhand -4.70137 27.0219
lfingers 7.12502
lthumb 21.0803 55.8961
rfemur -39.4146 -17.4143 26.7754
rtibia 46.4639
rfoot -23.5993 -20.7472
rtoes -4.21588
lfemur -41.538 -7.51591 -12.6673
ltibia 37.499
lfoot -8.4689 -5.10074
ltoes -18.5308
3742
root -1.46365 17.3638 -2.01812 13.205 23.2767 1.89327
lowerback 17.378 5.48909 2.20922
upperback 11.8928 7.63602 -0.964682
thorax 3.54375 4.09845 -3.27091
lowerneck 2.16174 -10.7644 -4.77268
upperneck -14.1734 -13.3288 13.9935
head -3.22994 -7.15668 5.35697
rclavicle -3.18055e-015 3.97569e-015
rhumerus 60.4423 12.9229 -5.377
rradius 72.3435
rwrist -87.2246
rhand -2.70325 12.5436
rfingers 7.12502
rthumb 22.9987 -16.1044
lclavicle -3.18055e-015 3.97569e-015
lhumerus 51.0364 -15.0359 7.32267
lradius 86.7944
lwrist 88.1887
lhand -4.70662 26.8074
lfingers 7.12502
lthumb 21.0753 55.6821
rfemur -39.1979 -17.4051 26.5183
rtibia 46.2781
rfoot -23.5182 -20.87
rtoes -4.34727
lfemur -41.2613 -7.56915 -12.8934
ltibia 37.1624
lfoot -8.36516 -5.12219
ltoes -18.2836
3743
root -1.42332 17.3781 -2.01571 13.2694 23.2343 2.09713
lowerback 17.2383 5.62238 2.16549
upperback 11.9275 7.8009 -0.770799
thorax 3.62988 4.17101 -3.04669
lowerneck 2.16146 -10.9337 -4.87821
upperneck -14.1674 -13.5965 13.7444
head -3.2159 -7.27185 5.29656
rclavicle -4.21423e-014 4.13472e-014
rhumerus 60.6673 13.0997 -5.59946
rradius 72.4053
rwrist -87.2824
rhand -2.7704 12.587
rfingers 7.12502
rthumb 22.9343 -16.0689
lclavicle -4.21423e-014 4.13472e-014
lhumerus 50.6756 -14.9338 6.73959
lradius 86.8898
lwrist 88.089
lhand -4.63729 26.7542
lfingers 7.12502
lthumb 21.1419 55.6215
rfemur -39.0213 -17.4189 26.1328
rtibia 46.1088
rfoot -23.4242 -20.8878
rtoes -4.49592
lfemur -40.9626 -7.60915 -13.2515
ltibia 36.806
lfoot -8.2101 -5.16966
ltoes -17.3861
3744
root -1.38484 17.3931 -2.01773 13.3117 23.2486 2.32726
lowerback 17.2329 5.70897 2.03011
upperback 11.8834 7.89208 -0.545337
thorax 3.53497 4.19543 -2.75275
lowerneck 2.35657 -11.0404 -5.04548
upperneck -14.1801 -13.7843 13.5089
head -3.24181 -7.35042 5.26418
rclavicle 6.75868e-014 -3.02153e-014
rhumerus 60.9621 13.3615 -5.77056
rradius 72.5266
rwrist -87.379
rhand -3.01247 12.5465
rfingers 7.12502
rthumb 22.702 -16.1381
lclavicle 6.75868e-014 -3.02153e-014
lhumerus 50.2046 -14.9148 6.22707
lradius 86.9207
lwrist 88.1593
lhand -4.54902 26.7983
lfingers 7.12502
lthumb 21.2267 55.6561
rfemur -38.8163 -17.4391 25.7073
rtibia 45.9415
rfoot -23.379 -20.8845
rtoes -4.37658
lfemur -40.6687 -7.76091 -13.6034
ltibia 36.4443
lfoot -8.06379 -5.15345
ltoes -16.5969
3745
root -1.34615 17.4091 -2.01945 13.3521 23.2994 2.53364
lowerback 17.2669 5.73272 2.04616
upperback 11.8177 7.92294 -0.427081
thorax 3.43039 4.20389 -2.65117
lowerneck 2.43869 -11.1398 -5.08606
upperneck -14.1251 -13.9522 13.2968
head -3.23843 -7.42179 5.20952
rclavicle -8.74653e-015 2.06736e-014
rhumerus 61.2799 13.6523 -6.18825
rradius 72.5797
rwrist -87.3442
rhand -3.2385 12.5361
rfingers 7.12502
rthumb 22.4851 -16.1749
lclavicle -8.74653e-015 2.06736e-014
lhumerus 49.8038 -14.8874 5.49185
lradius 86.9751
lwrist 88.0374
lhand -4.50975 27.0272
lfingers 7.12502
lthumb 21.2644 55.8807
rfemur -38.6186 -17.521 25.3188
rtibia 45.7895
rfoot -23.3438 -20.8711
rtoes -4.20237
lfemur -40.3831 -7.91923 -13.9471
ltibia 36.0858
lfoot -8.00204 -5.01687
ltoes -16.8703
3746
root -1.30482 17.4248 -2.02006 13.3807 23.3424 2.65836
lowerback 17.2076 5.78253 2.27341
upperback 11.8218 8.01635 -0.334571
thorax 3.49003 4.26137 -2.68153
lowerneck 2.40143 -11.3075 -5.06212
upperneck -14.0735 -14.2022 13.1152
head -3.21165 -7.53607 5.14584
rclavicle 1.90833e-014 -1.59028e-015
rhumerus 61.535 14.0101 -6.8462
rradius 72.3476
rwrist -87.0304
rhand -3.19235 12.5549
rfingers 7.12502
rthumb 22.5294 -16.1507
lclavicle 1.90833e-014 -1.59028e-015
lhumerus 49.6419 -14.72 4.77768
lradius 86.9849
lwrist 88.1139
lhand -4.28209 27.2478
lfingers 7.12502
lthumb 21.4831 56.0765
rfemur -38.415 -17.5947 25.0206
rtibia 45.6232
rfoot -23.2858 -20.8456
rtoes -3.89403
lfemur -40.1138 -8.00657 -14.2277
ltibia 35.7425
lfoot -8.04996 -4.91016
ltoes -17.6407
3747
root -1.26448 17.4383 -2.02061 13.4447 23.3106 2.78822
lowerback 17.0828 5.84706 2.46562
upperback 11.8133 8.12257 -0.264912
thorax 3.56947 4.32377 -2.71132
lowerneck 2.47485 -11.457 -5.07474
upperneck -14.0216 -14.4252 13.0021
head -3.1972 -7.64185 5.11518
rclavicle 7.15625e-015 -1.27222e-014
rhumerus 61.5396 13.909 -7.00084
rradius 72.6402
rwrist -87.4902
rhand -3.28931 12.4554
rfingers 7.12502
rthumb 22.4363 -16.2614
lclavicle 7.15625e-015 -1.27222e-014
lhumerus 49.3996 -14.567 4.01839
lradius 86.9647
lwrist 88.6176
lhand -3.82579 26.6654
lfingers 7.12502
lthumb 21.9212 55.4435
rfemur -38.2696 -17.5702 24.7079
rtibia 45.4639
rfoot -23.2631 -20.8104
rtoes -3.42121
lfemur -39.8839 -7.99518 -14.5395
ltibia 35.4106
lfoot -7.9231 -4.91609
ltoes -17.7339
